{
    "asset" : {
        "generator" : "Khronos glTF Blender I/O v1.4.40",
        "version" : "2.0"
    },
    "scene" : 0,
    "scenes" : [
        {
            "name" : "Scene",
            "nodes" : [
                0
            ]
        }
    ],
    "nodes" : [
        {
            "mesh" : 0,
            "name" : "Shop",
            "rotation" : [
                -0.5340227484703064,
                -0.5322991609573364,
                0.46372538805007935,
                0.465226948261261
            ],
            "scale" : [
                0.20062966644763947,
                0.047049857676029205,
                0.061932746320962906
            ],
            "translation" : [
                0.20281371474266052,
                2.042649507522583,
                -0.7836622595787048
            ]
        }
    ],
    "materials" : [
        {
            "doubleSided" : true,
            "name" : "Mat\u00e9riau.001",
            "pbrMetallicRoughness" : {
                "baseColorTexture" : {
                    "index" : 0,
                    "texCoord" : 0
                },
                "metallicFactor" : 0,
                "roughnessFactor" : 0.5
            }
        },
        {
            "doubleSided" : true,
            "name" : "Mat\u00e9riau",
            "pbrMetallicRoughness" : {
                "metallicFactor" : 0,
                "roughnessFactor" : 0.5
            }
        },
        {
            "doubleSided" : true,
            "name" : "Mat\u00e9riau.012",
            "pbrMetallicRoughness" : {
                "baseColorFactor" : [
                    0,
                    0,
                    0,
                    1
                ],
                "metallicFactor" : 0,
                "roughnessFactor" : 0.5
            }
        },
        {
            "doubleSided" : true,
            "name" : "Mat\u00e9riau.002",
            "pbrMetallicRoughness" : {
                "metallicFactor" : 0,
                "roughnessFactor" : 0.5
            }
        },
        {
            "doubleSided" : true,
            "name" : "Mat\u00e9riau.004",
            "pbrMetallicRoughness" : {
                "baseColorFactor" : [
                    0.6165856122970581,
                    0.2927163243293762,
                    0.1222769021987915,
                    1
                ],
                "metallicFactor" : 0,
                "roughnessFactor" : 0.5
            }
        },
        {
            "doubleSided" : true,
            "name" : "Mat\u00e9riau.009",
            "pbrMetallicRoughness" : {
                "baseColorFactor" : [
                    1,
                    0.11443526297807693,
                    0,
                    1
                ],
                "metallicFactor" : 0,
                "roughnessFactor" : 0.5
            }
        },
        {
            "doubleSided" : true,
            "name" : "Mat\u00e9riau.010",
            "pbrMetallicRoughness" : {
                "baseColorFactor" : [
                    0.03954628109931946,
                    0.7454043030738831,
                    0.0998987928032875,
                    1
                ],
                "metallicFactor" : 0,
                "roughnessFactor" : 0.5
            }
        },
        {
            "doubleSided" : true,
            "name" : "Mat\u00e9riau.013",
            "pbrMetallicRoughness" : {
                "baseColorFactor" : [
                    0.9748764634132385,
                    0.8388532996177673,
                    1,
                    1
                ],
                "metallicFactor" : 0,
                "roughnessFactor" : 0.5
            }
        },
        {
            "doubleSided" : true,
            "name" : "flower.002",
            "pbrMetallicRoughness" : {
                "baseColorFactor" : [
                    0.800000011920929,
                    0.800000011920929,
                    0.800000011920929,
                    1
                ],
                "metallicFactor" : 0,
                "roughnessFactor" : 0.5
            }
        },
        {
            "doubleSided" : true,
            "name" : "red",
            "pbrMetallicRoughness" : {
                "baseColorFactor" : [
                    0.8000000715255737,
                    0.09994055330753326,
                    0.0016719010891392827,
                    1
                ],
                "metallicFactor" : 0,
                "roughnessFactor" : 0.5
            }
        },
        {
            "doubleSided" : true,
            "name" : "yellow",
            "pbrMetallicRoughness" : {
                "baseColorFactor" : [
                    0.8000000715255737,
                    0.6228713989257812,
                    0.0716140866279602,
                    1
                ],
                "metallicFactor" : 0,
                "roughnessFactor" : 0.5
            }
        },
        {
            "doubleSided" : true,
            "name" : "green",
            "pbrMetallicRoughness" : {
                "baseColorFactor" : [
                    0.013926182873547077,
                    0.20190103352069855,
                    0.04868251830339432,
                    1
                ],
                "metallicFactor" : 0,
                "roughnessFactor" : 0.5
            }
        }
    ],
    "meshes" : [
        {
            "name" : "Shop",
            "primitives" : [
                {
                    "attributes" : {
                        "POSITION" : 0
                    },
                    "indices" : 1,
                    "material" : 0
                },
                {
                    "attributes" : {
                        "POSITION" : 2
                    },
                    "indices" : 3,
                    "material" : 1
                },
                {
                    "attributes" : {
                        "POSITION" : 4
                    },
                    "indices" : 5,
                    "material" : 2
                },
                {
                    "attributes" : {
                        "POSITION" : 6
                    },
                    "indices" : 7
                },
                {
                    "attributes" : {
                        "POSITION" : 8
                    },
                    "indices" : 9,
                    "material" : 3
                },
                {
                    "attributes" : {
                        "POSITION" : 10
                    },
                    "indices" : 11,
                    "material" : 4
                },
                {
                    "attributes" : {
                        "POSITION" : 12
                    },
                    "indices" : 13,
                    "material" : 5
                },
                {
                    "attributes" : {
                        "POSITION" : 14
                    },
                    "indices" : 15,
                    "material" : 6
                },
                {
                    "attributes" : {
                        "POSITION" : 16
                    },
                    "indices" : 17,
                    "material" : 7
                },
                {
                    "attributes" : {
                        "POSITION" : 18
                    },
                    "indices" : 19,
                    "material" : 8
                },
                {
                    "attributes" : {
                        "POSITION" : 20
                    },
                    "indices" : 21,
                    "material" : 9
                },
                {
                    "attributes" : {
                        "POSITION" : 22
                    },
                    "indices" : 23,
                    "material" : 10
                },
                {
                    "attributes" : {
                        "POSITION" : 24
                    },
                    "indices" : 25,
                    "material" : 11
                }
            ]
        }
    ],
    "textures" : [
        {
            "sampler" : 0,
            "source" : 0
        }
    ],
    "images" : [
        {
            "bufferView" : 2,
            "mimeType" : "image/png",
            "name" : "Shop-Bake"
        }
    ],
    "accessors" : [
        {
            "bufferView" : 0,
            "componentType" : 5126,
            "count" : 430,
            "max" : [
                1.27573561668396,
                14.331084251403809,
                0.33774590492248535
            ],
            "min" : [
                -10.107819557189941,
                -42.562198638916016,
                -15.694487571716309
            ],
            "type" : "VEC3"
        },
        {
            "bufferView" : 1,
            "componentType" : 5123,
            "count" : 2520,
            "type" : "SCALAR"
        },
        {
            "bufferView" : 3,
            "componentType" : 5126,
            "count" : 4598,
            "max" : [
                8.523761749267578,
                17.455686569213867,
                28.665403366088867
            ],
            "min" : [
                -10.095252990722656,
                -58.52363204956055,
                -16.235918045043945
            ],
            "type" : "VEC3"
        },
        {
            "bufferView" : 4,
            "componentType" : 5123,
            "count" : 27252,
            "type" : "SCALAR"
        },
        {
            "bufferView" : 5,
            "componentType" : 5126,
            "count" : 3073,
            "max" : [
                -1.7737441062927246,
                17.455686569213867,
                28.66098976135254
            ],
            "min" : [
                -10.1415433883667,
                -54.12184524536133,
                -16.235918045043945
            ],
            "type" : "VEC3"
        },
        {
            "bufferView" : 6,
            "componentType" : 5123,
            "count" : 9582,
            "type" : "SCALAR"
        },
        {
            "bufferView" : 7,
            "componentType" : 5126,
            "count" : 4,
            "max" : [
                -10.081398010253906,
                13.399383544921875,
                -5.643077850341797
            ],
            "min" : [
                -10.088338851928711,
                -21.98587417602539,
                -16.10846519470215
            ],
            "type" : "VEC3"
        },
        {
            "bufferView" : 8,
            "componentType" : 5123,
            "count" : 6,
            "type" : "SCALAR"
        },
        {
            "bufferView" : 9,
            "componentType" : 5126,
            "count" : 16,
            "max" : [
                -8.631436347961426,
                13.399383544921875,
                -5.6280364990234375
            ],
            "min" : [
                -10.088338851928711,
                -21.98861312866211,
                -16.10846519470215
            ],
            "type" : "VEC3"
        },
        {
            "bufferView" : 10,
            "componentType" : 5123,
            "count" : 54,
            "type" : "SCALAR"
        },
        {
            "bufferView" : 11,
            "componentType" : 5126,
            "count" : 42,
            "max" : [
                -8.42375373840332,
                10.369979858398438,
                14.069443702697754
            ],
            "min" : [
                -8.850364685058594,
                -56.65888214111328,
                -15.160924911499023
            ],
            "type" : "VEC3"
        },
        {
            "bufferView" : 12,
            "componentType" : 5123,
            "count" : 198,
            "type" : "SCALAR"
        },
        {
            "bufferView" : 13,
            "componentType" : 5126,
            "count" : 3848,
            "max" : [
                4.415454387664795,
                15.97511100769043,
                20.83128547668457
            ],
            "min" : [
                -10.0750732421875,
                -44.60449981689453,
                -14.77115249633789
            ],
            "type" : "VEC3"
        },
        {
            "bufferView" : 14,
            "componentType" : 5123,
            "count" : 22878,
            "type" : "SCALAR"
        },
        {
            "bufferView" : 15,
            "componentType" : 5126,
            "count" : 64,
            "max" : [
                -3.9652647972106934,
                -48.239219665527344,
                10.5911226272583
            ],
            "min" : [
                -8.74014663696289,
                -56.795162200927734,
                -3.5327157974243164
            ],
            "type" : "VEC3"
        },
        {
            "bufferView" : 16,
            "componentType" : 5123,
            "count" : 288,
            "type" : "SCALAR"
        },
        {
            "bufferView" : 17,
            "componentType" : 5126,
            "count" : 5060,
            "max" : [
                1.9439276456832886,
                14.316205978393555,
                -1.5324296951293945
            ],
            "min" : [
                -4.409679889678955,
                -40.64006805419922,
                -13.207636833190918
            ],
            "type" : "VEC3"
        },
        {
            "bufferView" : 18,
            "componentType" : 5123,
            "count" : 15120,
            "type" : "SCALAR"
        },
        {
            "bufferView" : 19,
            "componentType" : 5126,
            "count" : 5310,
            "max" : [
                -7.7883381843566895,
                3.6528210639953613,
                -11.71026611328125
            ],
            "min" : [
                -8.610694885253906,
                -14.78204345703125,
                -15.182774543762207
            ],
            "type" : "VEC3"
        },
        {
            "bufferView" : 20,
            "componentType" : 5123,
            "count" : 31680,
            "type" : "SCALAR"
        },
        {
            "bufferView" : 21,
            "componentType" : 5126,
            "count" : 2144,
            "max" : [
                -7.05120849609375,
                6.500753879547119,
                -9.340618133544922
            ],
            "min" : [
                -7.715066909790039,
                -15.846805572509766,
                -12.350969314575195
            ],
            "type" : "VEC3"
        },
        {
            "bufferView" : 22,
            "componentType" : 5123,
            "count" : 12672,
            "type" : "SCALAR"
        },
        {
            "bufferView" : 23,
            "componentType" : 5126,
            "count" : 132,
            "max" : [
                -7.200037002563477,
                5.778635501861572,
                -9.750314712524414
            ],
            "min" : [
                -7.551987648010254,
                -15.066176414489746,
                -11.961947441101074
            ],
            "type" : "VEC3"
        },
        {
            "bufferView" : 24,
            "componentType" : 5123,
            "count" : 672,
            "type" : "SCALAR"
        },
        {
            "bufferView" : 25,
            "componentType" : 5126,
            "count" : 680,
            "max" : [
                -7.198592662811279,
                7.338360786437988,
                -8.748440742492676
            ],
            "min" : [
                -8.81583309173584,
                -16.870859146118164,
                -11.971149444580078
            ],
            "type" : "VEC3"
        },
        {
            "bufferView" : 26,
            "componentType" : 5123,
            "count" : 3648,
            "type" : "SCALAR"
        }
    ],
    "bufferViews" : [
        {
            "buffer" : 0,
            "byteLength" : 5160,
            "byteOffset" : 0
        },
        {
            "buffer" : 0,
            "byteLength" : 5040,
            "byteOffset" : 5160
        },
        {
            "buffer" : 0,
            "byteLength" : 15799,
            "byteOffset" : 10200
        },
        {
            "buffer" : 0,
            "byteLength" : 55176,
            "byteOffset" : 26000
        },
        {
            "buffer" : 0,
            "byteLength" : 54504,
            "byteOffset" : 81176
        },
        {
            "buffer" : 0,
            "byteLength" : 36876,
            "byteOffset" : 135680
        },
        {
            "buffer" : 0,
            "byteLength" : 19164,
            "byteOffset" : 172556
        },
        {
            "buffer" : 0,
            "byteLength" : 48,
            "byteOffset" : 191720
        },
        {
            "buffer" : 0,
            "byteLength" : 12,
            "byteOffset" : 191768
        },
        {
            "buffer" : 0,
            "byteLength" : 192,
            "byteOffset" : 191780
        },
        {
            "buffer" : 0,
            "byteLength" : 108,
            "byteOffset" : 191972
        },
        {
            "buffer" : 0,
            "byteLength" : 504,
            "byteOffset" : 192080
        },
        {
            "buffer" : 0,
            "byteLength" : 396,
            "byteOffset" : 192584
        },
        {
            "buffer" : 0,
            "byteLength" : 46176,
            "byteOffset" : 192980
        },
        {
            "buffer" : 0,
            "byteLength" : 45756,
            "byteOffset" : 239156
        },
        {
            "buffer" : 0,
            "byteLength" : 768,
            "byteOffset" : 284912
        },
        {
            "buffer" : 0,
            "byteLength" : 576,
            "byteOffset" : 285680
        },
        {
            "buffer" : 0,
            "byteLength" : 60720,
            "byteOffset" : 286256
        },
        {
            "buffer" : 0,
            "byteLength" : 30240,
            "byteOffset" : 346976
        },
        {
            "buffer" : 0,
            "byteLength" : 63720,
            "byteOffset" : 377216
        },
        {
            "buffer" : 0,
            "byteLength" : 63360,
            "byteOffset" : 440936
        },
        {
            "buffer" : 0,
            "byteLength" : 25728,
            "byteOffset" : 504296
        },
        {
            "buffer" : 0,
            "byteLength" : 25344,
            "byteOffset" : 530024
        },
        {
            "buffer" : 0,
            "byteLength" : 1584,
            "byteOffset" : 555368
        },
        {
            "buffer" : 0,
            "byteLength" : 1344,
            "byteOffset" : 556952
        },
        {
            "buffer" : 0,
            "byteLength" : 8160,
            "byteOffset" : 558296
        },
        {
            "buffer" : 0,
            "byteLength" : 7296,
            "byteOffset" : 566456
        }
    ],
    "samplers" : [
        {
            "magFilter" : 9729,
            "minFilter" : 9986
        }
    ],
    "buffers" : [
        {
            "byteLength" : 573752,
            "uri" : "data:application/octet-stream;base64,"
        }
    ]
}
