<svg width="26" height="24" viewBox="0 0 26 24" fill="none" xmlns="http://www.w3.org/2000/svg">
<path d="M25.371 4.91832C24.9676 3.95586 24.3859 3.08369 23.6585 2.35064C22.9306 1.61539 22.0723 1.0311 21.1304 0.62954C20.1537 0.211494 19.1062 -0.0024864 18.0486 2.1797e-05C16.5649 2.1797e-05 15.1172 0.418667 13.8592 1.20944C13.5583 1.39861 13.2724 1.60638 13.0015 1.83276C12.7306 1.60638 12.4447 1.39861 12.1438 1.20944C10.8857 0.418667 9.43812 2.1797e-05 7.95438 2.1797e-05C6.88597 2.1797e-05 5.85067 0.210895 4.87255 0.62954C3.92753 1.03268 3.07581 1.61258 2.34448 2.35064C1.61615 3.08287 1.03433 3.95524 0.632017 4.91832C0.213682 5.91997 0 6.98364 0 8.07832C0 9.11097 0.204653 10.187 0.61095 11.2817C0.951035 12.1965 1.43859 13.1455 2.06158 14.1037C3.04873 15.6201 4.40606 17.2017 6.09144 18.8049C8.88435 21.4625 11.6502 23.2984 11.7676 23.3728L12.4808 23.8442C12.7968 24.0519 13.2031 24.0519 13.5191 23.8442L14.2324 23.3728C14.3498 23.2953 17.1126 21.4625 19.9085 18.8049C21.5939 17.2017 22.9512 15.6201 23.9384 14.1037C24.5614 13.1455 25.0519 12.1965 25.389 11.2817C25.7953 10.187 26 9.11097 26 8.07832C26.003 6.98364 25.7893 5.91997 25.371 4.91832ZM13.0015 21.3912C13.0015 21.3912 2.2873 14.3177 2.2873 8.07832C2.2873 4.91832 4.82439 2.35684 7.95438 2.35684C10.1544 2.35684 12.0625 3.62207 13.0015 5.47031C13.9405 3.62207 15.8486 2.35684 18.0486 2.35684C21.1786 2.35684 23.7157 4.91832 23.7157 8.07832C23.7157 14.3177 13.0015 21.3912 13.0015 21.3912Z" fill="#09192C"/>
</svg>
