<svg width="36" height="32" viewBox="0 0 36 32" fill="none" xmlns="http://www.w3.org/2000/svg">
<path d="M35.129 6.55776C34.5705 5.27449 33.7651 4.11159 32.7579 3.13418C31.75 2.15385 30.5617 1.3748 29.2575 0.839386C27.9052 0.281991 26.4547 -0.0033152 24.9904 2.90627e-05C22.936 2.90627e-05 20.9316 0.558222 19.1897 1.61259C18.773 1.86481 18.3771 2.14184 18.0021 2.44367C17.627 2.14184 17.2311 1.86481 16.8144 1.61259C15.0726 0.558222 13.0682 2.90627e-05 11.0138 2.90627e-05C9.53442 2.90627e-05 8.10093 0.281193 6.74661 0.839386C5.43812 1.37691 4.25882 2.15011 3.2462 3.13418C2.23774 4.11049 1.43216 5.27366 0.8751 6.55776C0.295867 7.89329 0 9.31152 0 10.7711C0 12.148 0.283366 13.5827 0.84593 15.0423C1.31682 16.2621 1.99189 17.5273 2.85449 18.8049C4.22132 20.8268 6.1007 22.9356 8.4343 25.0732C12.3014 28.6167 16.131 31.0645 16.2935 31.1637L17.2811 31.7922C17.7187 32.0693 18.2813 32.0693 18.7188 31.7922L19.7064 31.1637C19.8689 31.0604 23.6944 28.6167 27.5657 25.0732C29.8993 22.9356 31.7786 20.8268 33.1455 18.8049C34.0081 17.5273 34.6873 16.2621 35.154 15.0423C35.7166 13.5827 36 12.148 36 10.7711C36.0041 9.31152 35.7083 7.89329 35.129 6.55776ZM18.0021 28.5216C18.0021 28.5216 3.16703 19.0902 3.16703 10.7711C3.16703 6.55776 6.67993 3.14245 11.0138 3.14245C14.0599 3.14245 16.7019 4.82943 18.0021 7.29375C19.3022 4.82943 21.9442 3.14245 24.9904 3.14245C29.3242 3.14245 32.8371 6.55776 32.8371 10.7711C32.8371 19.0902 18.0021 28.5216 18.0021 28.5216Z" fill="#09192C"/>
</svg>
