<svg width="40" height="36" viewBox="0 0 40 36" fill="none" xmlns="http://www.w3.org/2000/svg">
<path d="M39.0322 7.37748C38.4116 5.9338 37.5167 4.62554 36.3977 3.52595C35.2778 2.42308 33.9574 1.54665 32.5084 0.94431C31.0058 0.31724 29.3941 -0.0037296 27.7671 3.26956e-05C25.4844 3.26956e-05 23.2573 0.628 21.3219 1.81416C20.8589 2.09791 20.419 2.40957 20.0023 2.74913C19.5856 2.40957 19.1457 2.09791 18.6827 1.81416C16.7473 0.628 14.5202 3.26956e-05 12.2375 3.26956e-05C10.5938 3.26956e-05 9.00103 0.316342 7.49623 0.94431C6.04236 1.54902 4.73202 2.41887 3.60689 3.52595C2.48638 4.6243 1.59128 5.93287 0.972334 7.37748C0.328741 8.87995 0 10.4755 0 12.1175C0 13.6665 0.314851 15.2806 0.939923 16.9226C1.46313 18.2948 2.21322 19.7182 3.17166 21.1556C4.69035 23.4302 6.77855 25.8025 9.37144 28.2074C13.6682 32.1938 17.9233 34.9476 18.1039 35.0592L18.5117 35.3219C18.969 35.6166 19.4559 35.9416 20 35.9416C20.544 35.9416 21.0309 35.6166 21.4882 35.322L21.896 35.0592C22.0766 34.9429 26.3271 32.1938 30.6285 28.2074C33.2214 25.8025 35.3096 23.4302 36.8283 21.1556C37.7867 19.7182 38.5415 18.2948 39.06 16.9226C39.6851 15.2806 40 13.6665 40 12.1175C40.0046 10.4755 39.6758 8.87995 39.0322 7.37748Z" fill="#8D48FF"/>
</svg>
