<svg width="32" height="30" viewBox="0 0 32 30" fill="none" xmlns="http://www.w3.org/2000/svg">
<path d="M10.2342 27.8888C11.7281 27.8888 12.9392 26.6824 12.9392 25.1944C12.9392 23.7063 11.7281 22.5 10.2342 22.5C8.74034 22.5 7.5293 23.7063 7.5293 25.1944C7.5293 26.6824 8.74034 27.8888 10.2342 27.8888Z" fill="black"/>
<path d="M21.5564 28.0688C23.0659 28.0688 24.2896 26.8221 24.2896 25.2844C24.2896 23.7466 23.0659 22.5 21.5564 22.5C20.0469 22.5 18.8232 23.7466 18.8232 25.2844C18.8232 26.8221 20.0469 28.0688 21.5564 28.0688Z" fill="black"/>
<path fill-rule="evenodd" clip-rule="evenodd" d="M29.5225 2.50684C28.1728 2.50684 27.0811 3.62996 27.0811 5.01559L26.7573 7.53371H2.93046C2.33187 7.53371 1.91211 8.07184 1.91211 8.75996C1.91211 9.02059 1.93093 9.26621 2.04764 9.46309L4.32717 19.6893C4.40246 20.0118 4.6434 20.25 4.95023 20.3812C5.09876 20.4782 5.27149 20.5321 5.44905 20.5368H25.1479L24.8203 22.5862H6.70834C6.10787 22.5862 5.76529 22.6912 5.76529 23.3793C5.76529 24.0675 6.10787 24.2681 6.70834 24.2681L27.0189 24.27L29.2025 7.49246C29.3098 7.50559 29.4114 7.52621 29.5225 7.52621C30.8683 7.52621 31.9601 6.40121 31.9601 5.01746C31.9601 3.62996 30.8665 2.50684 29.5225 2.50684ZM25.8745 13.3293H22.5879V9.31496H26.4994L25.8745 13.3293ZM5.9667 18.7387L5.38505 14.9231H9.49235V18.7387H5.9667ZM16.8825 9.31684H20.7356V13.155H16.8825V9.31684ZM15.1168 13.2131H11.2053V9.28684H15.1168V13.2131ZM9.46976 13.1943H5.33423L4.74317 9.32059H9.47164V13.1943H9.46976ZM11.2354 14.9418H15.1168V18.8381H11.2354V14.9418ZM16.8825 14.9118H20.7639V18.8381H16.8825V14.9118ZM22.5295 18.8081V14.97H26.1173L25.5733 18.8081H22.5295Z" fill="black"/>
</svg>
