<svg width="102" height="60" viewBox="0 0 102 60" fill="none" xmlns="http://www.w3.org/2000/svg">
<mask id="mask0" mask-type="alpha" maskUnits="userSpaceOnUse" x="0" y="0" width="102" height="60">
<rect width="102" height="60" fill="white"/>
</mask>
<g mask="url(#mask0)">
<path d="M21.4754 36.3674C22.3912 35.4351 23.876 35.4351 24.7919 36.3674V36.3674C25.7077 37.2997 25.7077 38.8112 24.7919 39.7435L15.6715 49.0277C14.7556 49.96 13.2708 49.96 12.355 49.0277V49.0277C11.4391 48.0955 11.4391 46.5839 12.355 45.6517L21.4754 36.3674Z" fill="#09192C"/>
<ellipse rx="5.1" ry="1.5" transform="matrix(0.700784 0.713373 -0.700784 0.713373 19.4144 53.5786)" fill="#09192C"/>
<ellipse rx="5.1" ry="1.5" transform="matrix(0.700784 0.713373 -0.700784 0.713373 8.06164 42.0219)" fill="#09192C"/>
<ellipse rx="1.18314" ry="1.18314" transform="matrix(0.700784 0.713373 -0.700784 0.713373 14.0132 47.3397)" fill="#FA5014"/>
<path d="M21.3991 23.7071C22.3149 24.6394 23.7997 24.6394 24.7156 23.7071V23.7071C25.6314 22.7748 25.6314 21.2633 24.7156 20.331L15.5952 11.0468C14.6793 10.1145 13.1945 10.1145 12.2787 11.0468V11.0468C11.3628 11.9791 11.3628 13.4906 12.2787 14.4229L21.3991 23.7071Z" fill="#09192C"/>
<ellipse rx="5.1" ry="1.5" transform="matrix(0.700784 -0.713373 -0.700784 -0.713373 19.3381 6.49593)" fill="#09192C"/>
<ellipse rx="5.1" ry="1.5" transform="matrix(0.700784 -0.713373 -0.700784 -0.713373 7.98535 18.0526)" fill="#09192C"/>
<ellipse rx="1.18314" ry="1.18314" transform="matrix(0.700784 -0.713373 -0.700784 -0.713373 13.9369 12.7348)" fill="#FA5014"/>
<path d="M35.2814 39.7435C34.3656 38.8112 34.3656 37.2997 35.2814 36.3674V36.3674C36.1973 35.4351 37.6821 35.4351 38.5979 36.3674L47.7183 45.6516C48.6342 46.5839 48.6341 48.0954 47.7183 49.0277V49.0277C46.8025 49.96 45.3176 49.96 44.4018 49.0277L35.2814 39.7435Z" fill="#09192C"/>
<ellipse rx="5.1" ry="1.5" transform="matrix(0.700784 -0.713373 0.700784 0.713373 52.1888 41.8415)" fill="#09192C"/>
<ellipse rx="5.1" ry="1.5" transform="matrix(0.700784 -0.713373 0.700784 0.713373 40.8361 53.3982)" fill="#09192C"/>
<ellipse rx="1.18314" ry="1.18314" transform="matrix(0.700784 -0.713373 0.700784 0.713373 46.06 47.3397)" fill="#FA5014"/>
<path d="M35.2845 20.2565C34.3686 21.1888 34.3686 22.7003 35.2845 23.6326V23.6326C36.2003 24.5649 37.6852 24.5649 38.601 23.6326L47.7214 14.3484C48.6372 13.4161 48.6372 11.9046 47.7214 10.9723V10.9723C46.8055 10.04 45.3207 10.04 44.4049 10.9723L35.2845 20.2565Z" fill="#09192C"/>
<ellipse rx="5.1" ry="1.5" transform="matrix(0.700784 0.713373 0.700784 -0.713373 52.1919 18.1585)" fill="#09192C"/>
<ellipse rx="5.1" ry="1.5" transform="matrix(0.700784 0.713373 0.700784 -0.713373 40.8392 6.60184)" fill="#09192C"/>
<ellipse rx="1.18314" ry="1.18314" transform="matrix(0.700784 0.713373 0.700784 -0.713373 46.0631 12.6603)" fill="#FA5014"/>
<path d="M19.5 24C19.5 19.0294 23.5294 15 28.5 15H30H31.5C36.4706 15 40.5 19.0294 40.5 24V36C40.5 40.9706 36.4706 45 31.5 45H28.5C23.5294 45 19.5 40.9706 19.5 36V24Z" fill="#FA5014"/>
<mask id="mask1" mask-type="alpha" maskUnits="userSpaceOnUse" x="23" y="26" width="5" height="4">
<rect x="23.7" y="26.4" width="4.2" height="3.6" fill="#C4C4C4"/>
</mask>
<g mask="url(#mask1)">
<circle cx="25.8" cy="28.5" r="2.1" fill="white"/>
</g>
<mask id="mask2" mask-type="alpha" maskUnits="userSpaceOnUse" x="32" y="26" width="5" height="4">
<rect x="32.1" y="26.4" width="4.2" height="3.6" fill="#C4C4C4"/>
</mask>
<g mask="url(#mask2)">
<circle cx="34.2" cy="28.5" r="2.1" fill="white"/>
</g>
<mask id="mask3" mask-type="alpha" maskUnits="userSpaceOnUse" x="25" y="33" width="10" height="5">
<rect x="25.8" y="33.6" width="8.4" height="4.2" fill="#C4C4C4"/>
</mask>
<g mask="url(#mask3)">
<path fill-rule="evenodd" clip-rule="evenodd" d="M34.1045 33.6068C35.1998 33.1491 35.8799 32.5098 35.8799 31.8024C35.8799 30.4106 33.2474 29.2824 29.9999 29.2824C26.7525 29.2824 24.1199 30.4106 24.1199 31.8024C24.1199 32.5098 24.8001 33.1491 25.8954 33.6068C25.8329 33.8374 25.8 34.0768 25.8 34.3224C25.8 36.1781 27.6804 37.6824 30 37.6824C32.3196 37.6824 34.2 36.1781 34.2 34.3224C34.2 34.0768 34.167 33.8374 34.1045 33.6068ZM34.1045 33.6068C33.6946 32.0949 32.0126 30.9624 30 30.9624C27.9873 30.9624 26.3053 32.0949 25.8954 33.6068C26.955 34.0496 28.4031 34.3224 29.9999 34.3224C31.5968 34.3224 33.0449 34.0496 34.1045 33.6068Z" fill="white"/>
</g>
<path d="M63.1824 33.0456V34.032H61.8432V38.1H60.612V34.032H59.2728V33.0456H63.1824ZM66.1907 38.1504C65.7155 38.1504 65.2787 38.04 64.8803 37.8192C64.4867 37.5984 64.1723 37.2912 63.9371 36.8976C63.7067 36.4992 63.5915 36.0528 63.5915 35.5584C63.5915 35.064 63.7067 34.62 63.9371 34.2264C64.1723 33.8328 64.4867 33.5256 64.8803 33.3048C65.2787 33.084 65.7155 32.9736 66.1907 32.9736C66.6659 32.9736 67.1003 33.084 67.4939 33.3048C67.8923 33.5256 68.2043 33.8328 68.4299 34.2264C68.6603 34.62 68.7755 35.064 68.7755 35.5584C68.7755 36.0528 68.6603 36.4992 68.4299 36.8976C68.1995 37.2912 67.8875 37.5984 67.4939 37.8192C67.1003 38.04 66.6659 38.1504 66.1907 38.1504ZM66.1907 37.0272C66.5939 37.0272 66.9155 36.8928 67.1555 36.624C67.4003 36.3552 67.5227 36 67.5227 35.5584C67.5227 35.112 67.4003 34.7568 67.1555 34.4928C66.9155 34.224 66.5939 34.0896 66.1907 34.0896C65.7827 34.0896 65.4563 34.2216 65.2115 34.4856C64.9715 34.7496 64.8515 35.1072 64.8515 35.5584C64.8515 36.0048 64.9715 36.3624 65.2115 36.6312C65.4563 36.8952 65.7827 37.0272 66.1907 37.0272ZM73.982 38.1H72.7508L70.6916 34.9824V38.1H69.4604V33.0456H70.6916L72.7508 36.1776V33.0456H73.982V38.1ZM82.1243 33.0456V38.1H80.8931V35.0688L79.7627 38.1H78.7691L77.6315 35.0616V38.1H76.4003V33.0456H77.8547L79.2731 36.5448L80.6771 33.0456L82.1243 33.0456ZM84.2409 34.032V35.0544H85.8897V36.0048H84.2409V37.1136H86.1057V38.1L83.0097 38.1V33.0456H86.1057V34.032H84.2409ZM85.3641 32.0304L83.6289 32.7576V31.908L85.3641 31.0728V32.0304ZM90.541 33.0456V34.032H89.2018V38.1H87.9706V34.032H86.6314V33.0456H90.541ZM92.3901 33.0456V38.1H91.1589V33.0456H92.3901ZM94.5135 34.032V35.0544H96.1623V36.0048H94.5135V37.1136H96.3783V38.1H93.2823V33.0456H96.3783V34.032H94.5135ZM99.7552 38.1L98.704 36.192H98.4088V38.1H97.1776V33.0456H99.244C99.6424 33.0456 99.9808 33.1152 100.259 33.2544C100.542 33.3936 100.754 33.5856 100.893 33.8304C101.032 34.0704 101.102 34.3392 101.102 34.6368C101.102 34.9728 101.006 35.2728 100.814 35.5368C100.626 35.8008 100.348 35.988 99.9784 36.0984L101.145 38.1H99.7552ZM98.4088 35.3208H99.172C99.3976 35.3208 99.5656 35.2656 99.676 35.1552C99.7912 35.0448 99.8488 34.8888 99.8488 34.6872C99.8488 34.4952 99.7912 34.344 99.676 34.2336C99.5656 34.1232 99.3976 34.068 99.172 34.068H98.4088V35.3208Z" fill="#09192C"/>
<path d="M62.5128 29.6756C61.9584 29.6756 61.4616 29.5856 61.0224 29.4056C60.5832 29.2256 60.2304 28.9592 59.964 28.6064C59.7048 28.2536 59.568 27.8288 59.5536 27.332H61.5192C61.548 27.6128 61.6452 27.8288 61.8108 27.98C61.9764 28.124 62.1924 28.196 62.4588 28.196C62.7324 28.196 62.9484 28.1348 63.1068 28.0124C63.2652 27.8828 63.3444 27.7064 63.3444 27.4832C63.3444 27.296 63.2796 27.1412 63.15 27.0188C63.0276 26.8964 62.8728 26.7956 62.6856 26.7164C62.5056 26.6372 62.2464 26.5472 61.908 26.4464C61.4184 26.2952 61.0188 26.144 60.7092 25.9928C60.3996 25.8416 60.1332 25.6184 59.91 25.3232C59.6868 25.028 59.5752 24.6428 59.5752 24.1676C59.5752 23.462 59.8308 22.9112 60.342 22.5152C60.8532 22.112 61.5192 21.9104 62.34 21.9104C63.1752 21.9104 63.8484 22.112 64.3596 22.5152C64.8708 22.9112 65.1444 23.4656 65.1804 24.1784H63.1824C63.168 23.9336 63.078 23.7428 62.9124 23.606C62.7468 23.462 62.5344 23.39 62.2752 23.39C62.052 23.39 61.872 23.4512 61.7352 23.5736C61.5984 23.6888 61.53 23.858 61.53 24.0812C61.53 24.326 61.6452 24.5168 61.8756 24.6536C62.106 24.7904 62.466 24.938 62.9556 25.0964C63.4452 25.262 63.8412 25.4204 64.1436 25.5716C64.4532 25.7228 64.7196 25.9424 64.9428 26.2304C65.166 26.5184 65.2776 26.8892 65.2776 27.3428C65.2776 27.7748 65.166 28.1672 64.9428 28.52C64.7268 28.8728 64.41 29.1536 63.9924 29.3624C63.5748 29.5712 63.0816 29.6756 62.5128 29.6756ZM72.9805 22.0184V29.6H71.1337V26.4788H68.2609V29.6H66.4141V22.0184H68.2609V24.9884H71.1337V22.0184H72.9805ZM77.8993 29.6756C77.1865 29.6756 76.5313 29.51 75.9337 29.1788C75.3433 28.8476 74.8717 28.3868 74.5189 27.7964C74.1733 27.1988 74.0005 26.5292 74.0005 25.7876C74.0005 25.046 74.1733 24.38 74.5189 23.7896C74.8717 23.1992 75.3433 22.7384 75.9337 22.4072C76.5313 22.076 77.1865 21.9104 77.8993 21.9104C78.6121 21.9104 79.2637 22.076 79.8541 22.4072C80.4517 22.7384 80.9197 23.1992 81.2581 23.7896C81.6037 24.38 81.7765 25.046 81.7765 25.7876C81.7765 26.5292 81.6037 27.1988 81.2581 27.7964C80.9125 28.3868 80.4445 28.8476 79.8541 29.1788C79.2637 29.51 78.6121 29.6756 77.8993 29.6756ZM77.8993 27.9908C78.5041 27.9908 78.9865 27.7892 79.3465 27.386C79.7137 26.9828 79.8973 26.45 79.8973 25.7876C79.8973 25.118 79.7137 24.5852 79.3465 24.1892C78.9865 23.786 78.5041 23.5844 77.8993 23.5844C77.2873 23.5844 76.7977 23.7824 76.4305 24.1784C76.0705 24.5744 75.8905 25.1108 75.8905 25.7876C75.8905 26.4572 76.0705 26.9936 76.4305 27.3968C76.7977 27.7928 77.2873 27.9908 77.8993 27.9908ZM88.5819 24.4592C88.5819 24.8984 88.4811 25.3016 88.2795 25.6688C88.078 26.0288 87.7684 26.3204 87.3508 26.5436C86.9332 26.7668 86.4148 26.8784 85.7956 26.8784H84.6507V29.6H82.8039V22.0184H85.7956C86.4004 22.0184 86.9116 22.1228 87.3292 22.3316C87.7468 22.5404 88.06 22.8284 88.2688 23.1956C88.4776 23.5628 88.5819 23.984 88.5819 24.4592ZM85.6551 25.4096C86.008 25.4096 86.2708 25.3268 86.4436 25.1612C86.6164 24.9956 86.7027 24.7616 86.7027 24.4592C86.7027 24.1568 86.6164 23.9228 86.4436 23.7572C86.2708 23.5916 86.008 23.5088 85.6551 23.5088H84.6507V25.4096H85.6551ZM89.9646 22.0184L91.8546 22.0184L90.645 24.9128L89.403 24.9128L89.9646 22.0184Z" fill="#FA5014"/>
</g>
</svg>
