<svg width="106" height="110" viewBox="0 0 106 110" fill="none" xmlns="http://www.w3.org/2000/svg">
<path d="M89.2632 5.5C80.0356 5.5 72.5263 12.903 72.5263 22C72.5263 24.761 73.2851 27.324 74.5013 29.6175L68.2752 36.7785C64.5922 34.3122 60.2417 32.9957 55.7895 33C51.6666 33 47.8395 34.188 44.52 36.113L36.6314 28.336C38.1984 25.5554 39.0311 22.4309 39.0526 19.25C39.0526 8.635 30.2937 0 19.5263 0C8.75895 0 0 8.635 0 19.25C0 29.865 8.75895 38.5 19.5263 38.5C22.8793 38.5 25.9867 37.587 28.7427 36.113L36.6314 43.89C34.5879 47.2474 33.4973 51.0846 33.4737 55C33.4737 60.4835 35.5937 65.4445 38.9689 69.3055L29.5294 78.6115L29.6688 78.749C27.388 77.6134 24.871 77.0147 22.3158 77C13.0882 77 5.57895 84.403 5.57895 93.5C5.57895 102.597 13.0882 110 22.3158 110C31.5434 110 39.0526 102.597 39.0526 93.5C39.0526 90.882 38.3776 88.4455 37.2785 86.251L37.418 86.3885L48.3193 75.6415C50.668 76.4665 53.1562 77 55.7895 77C68.0966 77 78.1053 67.133 78.1053 55C78.0813 51.5834 77.2423 48.2203 75.6561 45.1825L82.6465 37.1415C84.6773 38.0105 86.9088 38.5 89.2632 38.5C98.4907 38.5 106 31.097 106 22C106 12.903 98.4907 5.5 89.2632 5.5ZM22.3158 99C20.8362 99 19.4171 98.4205 18.3709 97.3891C17.3246 96.3576 16.7368 94.9587 16.7368 93.5C16.7368 92.0413 17.3246 90.6424 18.3709 89.6109C19.4171 88.5795 20.8362 88 22.3158 88C23.7954 88 25.2144 88.5795 26.2607 89.6109C27.307 90.6424 27.8947 92.0413 27.8947 93.5C27.8947 94.9587 27.307 96.3576 26.2607 97.3891C25.2144 98.4205 23.7954 99 22.3158 99ZM11.1579 19.25C11.1579 14.7015 14.9125 11 19.5263 11C24.1401 11 27.8947 14.7015 27.8947 19.25C27.8947 23.7985 24.1401 27.5 19.5263 27.5C14.9125 27.5 11.1579 23.7985 11.1579 19.25ZM55.7895 66C49.6359 66 44.6316 61.0665 44.6316 55C44.6316 48.9335 49.6359 44 55.7895 44C61.9431 44 66.9474 48.9335 66.9474 55C66.9474 61.0665 61.9431 66 55.7895 66ZM89.2632 27.5C87.7835 27.5 86.3645 26.9205 85.3182 25.8891C84.272 24.8576 83.6842 23.4587 83.6842 22C83.6842 20.5413 84.272 19.1424 85.3182 18.1109C86.3645 17.0795 87.7835 16.5 89.2632 16.5C90.7428 16.5 92.1618 17.0795 93.2081 18.1109C94.2543 19.1424 94.8421 20.5413 94.8421 22C94.8421 23.4587 94.2543 24.8576 93.2081 25.8891C92.1618 26.9205 90.7428 27.5 89.2632 27.5Z" fill="#09192C"/>
</svg>
