<svg width="340" height="200" viewBox="0 0 340 200" fill="none" xmlns="http://www.w3.org/2000/svg">
<mask id="mask0" mask-type="alpha" maskUnits="userSpaceOnUse" x="0" y="0" width="340" height="200">
<rect width="340" height="200" fill="white"/>
</mask>
<g mask="url(#mask0)">
<rect width="200" height="200" fill="white"/>
<path d="M71.5846 121.225C74.6373 118.117 79.5868 118.117 82.6396 121.225C85.6923 124.332 85.6923 129.371 82.6396 132.478L52.2383 163.426C49.1855 166.533 44.236 166.533 41.1832 163.426C38.1305 160.318 38.1305 155.28 41.1832 152.172L71.5846 121.225Z" fill="#09192C"/>
<ellipse rx="17" ry="5" transform="matrix(0.700784 0.713373 -0.700784 0.713373 64.7146 178.595)" fill="#09192C"/>
<ellipse rx="17" ry="5" transform="matrix(0.700784 0.713373 -0.700784 0.713373 26.8721 140.073)" fill="#09192C"/>
<ellipse rx="3.9438" ry="3.94381" transform="matrix(0.700784 0.713373 -0.700784 0.713373 46.7107 157.799)" fill="#EF4813"/>
<path d="M71.3302 79.0236C74.3829 82.1312 79.3324 82.1312 82.3852 79.0236C85.4379 75.916 85.4379 70.8776 82.3852 67.77L51.9839 36.8225C48.9311 33.7149 43.9816 33.715 40.9289 36.8226C37.8761 39.9302 37.8761 44.9686 40.9289 48.0762L71.3302 79.0236Z" fill="#09192C"/>
<ellipse rx="17" ry="5" transform="matrix(0.700784 -0.713373 -0.700784 -0.713373 64.4602 21.6531)" fill="#09192C"/>
<ellipse rx="17" ry="5" transform="matrix(0.700784 -0.713373 -0.700784 -0.713373 26.6177 60.1752)" fill="#09192C"/>
<ellipse rx="3.9438" ry="3.94381" transform="matrix(0.700784 -0.713373 -0.700784 -0.713373 46.4563 42.4494)" fill="#EF4813"/>
<path d="M117.605 132.478C114.552 129.371 114.552 124.332 117.605 121.225C120.657 118.117 125.607 118.117 128.66 121.225L159.061 152.172C162.114 155.28 162.114 160.318 159.061 163.426C156.008 166.533 151.059 166.533 148.006 163.426L117.605 132.478Z" fill="#09192C"/>
<ellipse rx="17" ry="5" transform="matrix(0.700784 -0.713373 0.700784 0.713373 173.963 139.472)" fill="#09192C"/>
<ellipse rx="17" ry="5" transform="matrix(0.700784 -0.713373 0.700784 0.713373 136.12 177.994)" fill="#09192C"/>
<ellipse rx="3.9438" ry="3.94381" transform="matrix(0.700784 -0.713373 0.700784 0.713373 153.533 157.799)" fill="#EF4813"/>
<path d="M117.615 67.5217C114.562 70.6293 114.562 75.6677 117.615 78.7753C120.668 81.8829 125.617 81.8829 128.67 78.7753L159.071 47.8279C162.124 44.7203 162.124 39.6818 159.071 36.5742C156.018 33.4667 151.069 33.4666 148.016 36.5742L117.615 67.5217Z" fill="#09192C"/>
<ellipse rx="17" ry="5" transform="matrix(0.700784 0.713373 0.700784 -0.713373 173.973 60.5283)" fill="#09192C"/>
<ellipse rx="17" ry="5" transform="matrix(0.700784 0.713373 0.700784 -0.713373 136.131 22.0061)" fill="#09192C"/>
<ellipse rx="3.9438" ry="3.94381" transform="matrix(0.700784 0.713373 0.700784 -0.713373 153.544 42.201)" fill="#EF4813"/>
<path d="M65 80C65 63.4315 78.4315 50 95 50H100H105C121.569 50 135 63.4315 135 80V120C135 136.569 121.569 150 105 150H95C78.4315 150 65 136.569 65 120V80Z" fill="#EF4813"/>
<mask id="mask1" mask-type="alpha" maskUnits="userSpaceOnUse" x="79" y="88" width="14" height="12">
<rect x="79" y="88" width="14" height="12" fill="#C4C4C4"/>
</mask>
<g mask="url(#mask1)">
<circle cx="86" cy="95" r="7" fill="white"/>
</g>
<mask id="mask2" mask-type="alpha" maskUnits="userSpaceOnUse" x="107" y="88" width="14" height="12">
<rect x="107" y="88" width="14" height="12" fill="#C4C4C4"/>
</mask>
<g mask="url(#mask2)">
<circle cx="114" cy="95" r="7" fill="white"/>
</g>
<mask id="mask3" mask-type="alpha" maskUnits="userSpaceOnUse" x="86" y="112" width="28" height="14">
<rect x="86" y="112" width="28" height="14" fill="#C4C4C4"/>
</mask>
<g mask="url(#mask3)">
<path fill-rule="evenodd" clip-rule="evenodd" d="M113.682 112.023C117.333 110.497 119.6 108.366 119.6 106.008C119.6 101.369 110.825 97.608 99.9999 97.608C89.1751 97.608 80.3999 101.369 80.3999 106.008C80.3999 108.366 82.6671 110.497 86.3182 112.023C86.1098 112.791 86 113.589 86 114.408C86 120.594 92.268 125.608 100 125.608C107.732 125.608 114 120.594 114 114.408C114 113.589 113.89 112.791 113.682 112.023ZM113.682 112.023C112.315 106.983 106.709 103.208 100 103.208C93.2912 103.208 87.6845 106.983 86.3182 112.023C89.8501 113.499 94.6773 114.408 99.9999 114.408C105.323 114.408 110.15 113.499 113.682 112.023Z" fill="white"/>
</g>
<path d="M210.608 109.152V112.44H206.144V126H202.04V112.44H197.576V109.152H210.608ZM220.636 126.168C219.052 126.168 217.596 125.8 216.268 125.064C214.956 124.328 213.908 123.304 213.124 121.992C212.356 120.664 211.972 119.176 211.972 117.528C211.972 115.88 212.356 114.4 213.124 113.088C213.908 111.776 214.956 110.752 216.268 110.016C217.596 109.28 219.052 108.912 220.636 108.912C222.22 108.912 223.668 109.28 224.98 110.016C226.308 110.752 227.348 111.776 228.1 113.088C228.868 114.4 229.252 115.88 229.252 117.528C229.252 119.176 228.868 120.664 228.1 121.992C227.332 123.304 226.292 124.328 224.98 125.064C223.668 125.8 222.22 126.168 220.636 126.168ZM220.636 122.424C221.98 122.424 223.052 121.976 223.852 121.08C224.668 120.184 225.076 119 225.076 117.528C225.076 116.04 224.668 114.856 223.852 113.976C223.052 113.08 221.98 112.632 220.636 112.632C219.276 112.632 218.188 113.072 217.372 113.952C216.572 114.832 216.172 116.024 216.172 117.528C216.172 119.016 216.572 120.208 217.372 121.104C218.188 121.984 219.276 122.424 220.636 122.424ZM246.607 126H242.503L235.639 115.608V126H231.535V109.152H235.639L242.503 119.592V109.152L246.607 109.152V126ZM273.748 109.152V126H269.644V115.896L265.876 126H262.564L258.772 115.872V126H254.668V109.152H259.516L264.244 120.816L268.924 109.152H273.748ZM280.803 112.44V115.848H286.299V119.016H280.803V122.712H287.019V126H276.699V109.152H287.019V112.44H280.803ZM284.547 105.768L278.763 108.192V105.36L284.547 102.576V105.768ZM301.803 109.152V112.44H297.339V126H293.235V112.44H288.771V109.152H301.803ZM307.967 109.152V126H303.863V109.152H307.967ZM315.045 112.44V115.848H320.541V119.016H315.045V122.712H321.261V126L310.941 126V109.152H321.261V112.44H315.045ZM332.518 126L329.014 119.64H328.03V126H323.926V109.152L330.814 109.152C332.142 109.152 333.27 109.384 334.198 109.848C335.142 110.312 335.846 110.952 336.31 111.768C336.774 112.568 337.006 113.464 337.006 114.456C337.006 115.576 336.686 116.576 336.046 117.456C335.422 118.336 334.494 118.96 333.262 119.328L337.15 126H332.518ZM328.03 116.736H330.574C331.326 116.736 331.886 116.552 332.254 116.184C332.638 115.816 332.83 115.296 332.83 114.624C332.83 113.984 332.638 113.48 332.254 113.112C331.886 112.744 331.326 112.56 330.574 112.56H328.03V116.736Z" fill="#09192C"/>
<path d="M208.376 101.252C206.528 101.252 204.872 100.952 203.408 100.352C201.944 99.752 200.768 98.864 199.88 97.688C199.016 96.512 198.56 95.096 198.512 93.44H205.064C205.16 94.376 205.484 95.096 206.036 95.6C206.588 96.08 207.308 96.32 208.196 96.32C209.108 96.32 209.828 96.116 210.356 95.708C210.884 95.276 211.148 94.688 211.148 93.944C211.148 93.32 210.932 92.804 210.5 92.396C210.092 91.988 209.576 91.652 208.952 91.388C208.352 91.124 207.488 90.824 206.36 90.488C204.728 89.984 203.396 89.48 202.364 88.976C201.332 88.472 200.444 87.728 199.7 86.744C198.956 85.76 198.584 84.476 198.584 82.892C198.584 80.54 199.436 78.704 201.14 77.384C202.844 76.04 205.064 75.368 207.8 75.368C210.584 75.368 212.828 76.04 214.532 77.384C216.236 78.704 217.148 80.552 217.268 82.928H210.608C210.56 82.112 210.26 81.476 209.708 81.02C209.156 80.54 208.448 80.3 207.584 80.3C206.84 80.3 206.24 80.504 205.784 80.912C205.328 81.296 205.1 81.86 205.1 82.604C205.1 83.42 205.484 84.056 206.252 84.512C207.02 84.968 208.22 85.46 209.852 85.988C211.484 86.54 212.804 87.068 213.812 87.572C214.844 88.076 215.732 88.808 216.476 89.768C217.22 90.728 217.592 91.964 217.592 93.476C217.592 94.916 217.22 96.224 216.476 97.4C215.756 98.576 214.7 99.512 213.308 100.208C211.916 100.904 210.272 101.252 208.376 101.252ZM243.268 75.728V101H237.112V90.596H227.536V101H221.38V75.728H227.536V85.628H237.112V75.728L243.268 75.728ZM259.664 101.252C257.288 101.252 255.104 100.7 253.112 99.596C251.144 98.492 249.572 96.956 248.396 94.988C247.244 92.996 246.668 90.764 246.668 88.292C246.668 85.82 247.244 83.6 248.396 81.632C249.572 79.664 251.144 78.128 253.112 77.024C255.104 75.92 257.288 75.368 259.664 75.368C262.04 75.368 264.212 75.92 266.18 77.024C268.172 78.128 269.732 79.664 270.86 81.632C272.012 83.6 272.588 85.82 272.588 88.292C272.588 90.764 272.012 92.996 270.86 94.988C269.708 96.956 268.148 98.492 266.18 99.596C264.212 100.7 262.04 101.252 259.664 101.252ZM259.664 95.636C261.68 95.636 263.288 94.964 264.488 93.62C265.712 92.276 266.324 90.5 266.324 88.292C266.324 86.06 265.712 84.284 264.488 82.964C263.288 81.62 261.68 80.948 259.664 80.948C257.624 80.948 255.992 81.608 254.768 82.928C253.568 84.248 252.968 86.036 252.968 88.292C252.968 90.524 253.568 92.312 254.768 93.656C255.992 94.976 257.624 95.636 259.664 95.636ZM295.273 83.864C295.273 85.328 294.937 86.672 294.265 87.896C293.593 89.096 292.561 90.068 291.169 90.812C289.777 91.556 288.049 91.928 285.985 91.928H282.169V101H276.013V75.728H285.985C288.001 75.728 289.705 76.076 291.097 76.772C292.489 77.468 293.533 78.428 294.229 79.652C294.925 80.876 295.273 82.28 295.273 83.864ZM285.517 87.032C286.693 87.032 287.569 86.756 288.145 86.204C288.721 85.652 289.009 84.872 289.009 83.864C289.009 82.856 288.721 82.076 288.145 81.524C287.569 80.972 286.693 80.696 285.517 80.696H282.169V87.032H285.517ZM299.882 75.728H306.182L302.15 85.376H298.01L299.882 75.728Z" fill="#EF4813"/>
</g>
</svg>
